<svg xmlns="http://www.w3.org/2000/svg"  viewBox="0 0 100 100" width="100px" height="100px"><path d="M 53.287109 11.869141 C 42.513002 11.873141 31.702791 12.254834 20.861328 13.003906 A 2.0002 2.0002 0 0 0 19 15.015625 C 19.169766 37.619609 21.047056 57.115593 23.427734 75.634766 A 2.0002 2.0002 0 0 0 24.423828 77.119141 C 33.513922 82.275943 42.810754 86.206833 52.429688 87.966797 A 2.0002 2.0002 0 0 0 53.404297 87.902344 C 61.349294 85.335743 69.845222 82.322233 79.03125 78.75 A 2.0002 2.0002 0 0 0 80.28125 77.203125 C 83.337743 58.143403 85.808048 38.415533 87.357422 15.132812 A 2.0002 2.0002 0 0 0 85.503906 13.005859 C 74.800273 12.240381 64.061216 11.865124 53.287109 11.869141 z M 53.287109 15.869141 C 53.880699 15.868921 54.473057 15.88245 55.066406 15.884766 L 56.072266 18.375 A 1.0006575 1.0006575 0 1 0 57.927734 17.625 L 57.232422 15.902344 C 58.327402 15.912259 59.423403 15.913291 60.517578 15.931641 L 63.292969 18.707031 A 1.0001 1.0001 0 1 0 64.707031 17.292969 L 63.416016 16.001953 C 70.018126 16.157024 76.607405 16.447397 83.181641 16.886719 C 83.075841 18.405913 82.957185 19.876727 82.84375 21.367188 L 80.400391 23.199219 A 1.0003905 1.0003905 0 0 0 81.599609 24.800781 L 82.642578 24.017578 C 82.556626 25.092516 82.466841 26.148102 82.376953 27.208984 L 78.292969 31.292969 A 1.0001 1.0001 0 1 0 79.707031 32.707031 L 82.107422 30.306641 C 80.666382 46.4226 78.776999 61.00736 76.539062 75.125 L 74.707031 73.292969 A 1.0001 1.0001 0 0 0 73.990234 72.990234 A 1.0001 1.0001 0 0 0 73.292969 74.707031 L 74.683594 76.097656 C 71.719828 77.230411 68.825823 78.307667 66 79.330078 L 66 78 A 1.0001 1.0001 0 0 0 64.984375 76.986328 A 1.0001 1.0001 0 0 0 64 78 L 64 80.056641 C 62.98329 80.419356 61.998746 80.757192 61 81.105469 L 61 80 A 1.0001 1.0001 0 0 0 59.984375 78.986328 A 1.0001 1.0001 0 0 0 59 80 L 59 81.802734 C 56.853701 82.539364 54.738396 83.25085 52.675781 83.919922 C 52.670528 83.918918 52.665409 83.917021 52.660156 83.916016 L 52.894531 83.447266 A 1.0001 1.0001 0 0 0 51.955078 81.988281 A 1.0001 1.0001 0 0 0 51.105469 82.552734 L 50.642578 83.476562 C 49.851122 83.297953 49.060989 83.10365 48.271484 82.894531 L 49.832031 80.554688 A 1.0001 1.0001 0 0 0 48.980469 78.988281 A 1.0001 1.0001 0 0 0 48.167969 79.445312 L 46.238281 82.341797 C 44.804136 81.915084 43.373744 81.42377 41.945312 80.904297 L 43.554688 79.832031 A 1.0001 1.0001 0 0 0 42.980469 77.992188 A 1.0001 1.0001 0 0 0 42.445312 78.167969 L 39.640625 80.039062 C 39.277613 79.894778 38.915421 79.735733 38.552734 79.585938 L 39.599609 78.800781 A 1.0001 1.0001 0 0 0 39.023438 76.992188 A 1.0001 1.0001 0 0 0 38.400391 77.199219 L 36.419922 78.683594 C 35.48172 78.268279 34.543693 77.842108 33.607422 77.392578 L 34.832031 75.554688 A 1.0001 1.0001 0 0 0 33.980469 73.988281 A 1.0001 1.0001 0 0 0 33.167969 74.445312 L 31.804688 76.490234 C 31.322839 76.247791 30.840775 76.014487 30.359375 75.763672 L 31.832031 73.554688 A 1.0001 1.0001 0 0 0 30.980469 71.988281 A 1.0001 1.0001 0 0 0 30.167969 72.445312 L 28.589844 74.8125 C 28.155491 74.577009 27.721138 74.35123 27.287109 74.109375 C 26.957566 71.521151 26.642745 68.906674 26.337891 66.275391 L 27.316406 65.949219 A 1.0001 1.0001 0 0 0 27.046875 63.996094 A 1.0001 1.0001 0 0 0 26.683594 64.050781 L 26.111328 64.242188 C 26.006837 63.313498 25.899548 62.390445 25.798828 61.455078 L 27.316406 60.949219 A 1.0001 1.0001 0 0 0 27.046875 58.996094 A 1.0001 1.0001 0 0 0 26.683594 59.050781 L 25.585938 59.416016 C 25.421112 57.83131 25.259937 56.239493 25.107422 54.632812 L 29.371094 52.927734 A 1.0001 1.0001 0 0 0 28.988281 50.994141 A 1.0001 1.0001 0 0 0 28.628906 51.072266 L 24.916016 52.556641 C 24.621372 49.312367 24.359907 46.008148 24.125 42.65625 L 26.599609 40.800781 A 1.0001 1.0001 0 0 0 26.023438 38.992188 A 1.0001 1.0001 0 0 0 25.400391 39.199219 L 23.957031 40.283203 C 23.903718 39.461209 23.857839 38.624289 23.808594 37.794922 L 28.640625 33.767578 A 1.0001 1.0001 0 0 0 27.972656 31.992188 A 1.0001 1.0001 0 0 0 27.359375 32.232422 L 23.669922 35.306641 C 23.53977 32.888676 23.430358 30.435737 23.337891 27.949219 L 25.447266 26.894531 A 1.0001 1.0001 0 0 0 25.003906 24.994141 A 1.0001 1.0001 0 0 0 24.552734 25.105469 L 23.251953 25.755859 C 23.158496 22.850075 23.086895 19.90701 23.050781 16.896484 C 25.623981 16.72897 28.194436 16.581577 30.763672 16.453125 L 31.050781 17.316406 A 1.0005646 1.0005646 0 1 0 32.949219 16.683594 L 32.84375 16.365234 C 34.012583 16.311751 35.181622 16.259766 36.349609 16.214844 L 37.050781 18.316406 A 1.0005646 1.0005646 0 1 0 38.949219 17.683594 L 38.431641 16.130859 C 39.409652 16.097572 40.385875 16.081739 41.363281 16.054688 L 42.017578 19.599609 A 1.0001 1.0001 0 1 0 43.982422 19.238281 L 43.384766 16.001953 C 46.688699 15.92526 49.990316 15.87037 53.287109 15.869141 z M 36.289062 26.199219 A 1.0001 1.0001 0 0 0 35.289062 27.199219 L 35.289062 49.513672 A 1.0001 1.0001 0 0 0 36.289062 50.513672 L 60.40625 50.513672 L 60.40625 58.65625 L 44.544922 58.65625 L 44.544922 55.599609 A 1.0001 1.0001 0 0 0 43.544922 54.599609 L 36.289062 54.599609 A 1.0001 1.0001 0 0 0 35.289062 55.599609 L 35.289062 65.742188 A 1.0001 1.0001 0 0 0 36.001953 66.701172 C 36.001953 66.701172 41.691854 68.407924 48.613281 69.003906 C 55.534708 69.599888 63.804647 69.172869 68.986328 64.453125 A 1.0001 1.0001 0 0 0 69.3125 63.742188 C 69.687338 50.385341 69.310547 42.382812 69.310547 42.382812 A 1.0001 1.0001 0 0 0 68.3125 41.429688 L 44.544922 41.400391 L 44.544922 36.314453 L 60.40625 36.314453 L 60.40625 37.34375 A 1.0001 1.0001 0 0 0 61.40625 38.34375 L 68.3125 38.34375 A 1.0001 1.0001 0 0 0 69.3125 37.34375 L 69.3125 27.199219 A 1.0001 1.0001 0 0 0 68.3125 26.199219 L 36.289062 26.199219 z M 37.289062 28.199219 L 67.3125 28.199219 L 67.3125 36.34375 L 62.40625 36.34375 L 62.40625 35.314453 A 1.0001 1.0001 0 0 0 61.40625 34.314453 L 43.544922 34.314453 A 1.0001 1.0001 0 0 0 42.544922 35.314453 L 42.544922 42.400391 A 1.0001 1.0001 0 0 0 43.542969 43.400391 L 67.335938 43.427734 C 67.385428 44.615983 67.630226 51.380665 67.316406 63.175781 C 62.854466 66.978787 55.33535 67.575735 48.785156 67.011719 C 42.758726 66.492802 38.236462 65.233616 37.289062 64.962891 L 37.289062 56.599609 L 42.544922 56.599609 L 42.544922 59.65625 A 1.0001 1.0001 0 0 0 43.544922 60.65625 L 61.40625 60.65625 A 1.0001 1.0001 0 0 0 62.40625 59.65625 L 62.40625 49.513672 A 1.0001 1.0001 0 0 0 61.40625 48.513672 L 37.289062 48.513672 L 37.289062 28.199219 z M 74.232422 30.224609 C 73.680422 30.195609 73.210594 30.619875 73.183594 31.171875 C 73.154594 31.723875 73.580812 32.191703 74.132812 32.220703 C 74.684813 32.249703 75.154641 31.823438 75.181641 31.273438 C 75.208641 30.722438 74.783422 30.252609 74.232422 30.224609 z M 31.876953 43.179688 C 31.324953 43.150688 30.854172 43.576906 30.826172 44.128906 C 30.798172 44.680906 31.223391 45.148734 31.775391 45.177734 C 32.326391 45.206734 32.796219 44.778516 32.824219 44.228516 C 32.851219 43.677516 32.426953 43.207687 31.876953 43.179688 z M 73.597656 56.220703 C 73.045656 56.191703 72.574875 56.617922 72.546875 57.169922 C 72.518875 57.721922 72.944094 58.18975 73.496094 58.21875 C 74.047094 58.24775 74.516922 57.819531 74.544922 57.269531 C 74.571922 56.718531 74.147656 56.248703 73.597656 56.220703 z"/></svg>